<?xml version="1.0" standalone="no"?>
<!DOCTYPE svg PUBLIC "-//W3C//DTD SVG 20010904//EN"
 "http://www.w3.org/TR/2001/REC-SVG-20010904/DTD/svg10.dtd">
<svg version="1.0" xmlns="http://www.w3.org/2000/svg"
 width="277.000000pt" height="277.000000pt" viewBox="0 0 277.000000 277.000000"
 preserveAspectRatio="xMidYMid meet">
<metadata>
Created by potrace 1.11, written by Peter Selinger 2001-2013
</metadata>
<g transform="translate(0.000000,277.000000) scale(0.100000,-0.100000)"
fill="#000000" stroke="none">
<path d="M415 1966 c-38 -17 -51 -40 -64 -112 -26 -145 -111 -861 -105 -886 7
-36 32 -49 96 -50 44 -1 54 2 75 26 21 24 23 37 23 124 0 148 41 605 59 654 5
15 135 -249 260 -530 55 -123 98 -161 151 -132 10 5 52 75 94 154 81 156 192
346 223 385 l20 24 12 -94 c6 -52 20 -164 31 -249 47 -366 46 -362 94 -391 41
-25 81 -24 106 3 27 28 26 37 -24 420 -53 409 -78 512 -142 576 -37 37 -88 43
-123 15 -12 -10 -84 -126 -161 -258 -76 -132 -143 -247 -149 -255 -14 -22 -30
2 -107 170 -84 181 -142 284 -195 344 -65 74 -111 90 -174 62z"/>
<path d="M1885 1623 c-79 -29 -135 -66 -198 -132 -148 -155 -180 -392 -70
-520 142 -167 546 -135 726 58 49 52 52 74 15 108 -19 17 -22 17 -81 -5 -273
-101 -256 -97 -359 -97 -107 0 -135 12 -171 73 -18 31 -18 32 3 66 35 58 76
67 306 69 196 2 201 3 237 27 42 29 56 56 64 120 4 32 0 56 -10 76 -24 47 -93
103 -166 137 -85 39 -217 48 -296 20z m255 -145 c54 -27 63 -54 25 -68 -69
-26 -365 -34 -365 -9 0 13 69 50 138 75 85 30 145 31 202 2z"/>
</g>
</svg>
